<svg width="84" height="84" viewBox="0 0 84 84" fill="none" xmlns="http://www.w3.org/2000/svg">
<circle cx="42" cy="42" r="41" fill="#D9D9D9" fill-opacity="0.01" stroke="white" stroke-width="2"/>
<path d="M60.6444 60.5544H24.3556C23.0553 60.5544 22 59.4991 22 58.1988V37.9756H63V58.1988C63 59.4991 61.9447 60.5544 60.6444 60.5544Z" stroke="white" stroke-width="2" stroke-miterlimit="10"/>
<path d="M42.4983 37.9756V60.5544" stroke="white" stroke-width="2" stroke-miterlimit="10"/>
<path d="M22 45.7303H63" stroke="white" stroke-width="2" stroke-miterlimit="10"/>
<path d="M63 37.9756H22V33.2502C22 31.9499 23.0553 30.8945 24.3556 30.8945H60.6444C61.9447 30.8945 63 31.9499 63 33.2502V37.9756Z" stroke="white" stroke-width="2" stroke-miterlimit="10"/>
<path d="M42.4983 30.8945L51.4003 23.4601C53.5321 21.6816 56.7711 23.1963 56.7711 25.9736V30.8945" stroke="white" stroke-width="2" stroke-miterlimit="10"/>
<path d="M42.4984 30.8945L33.5965 23.4624C31.4646 21.6839 28.2256 23.1986 28.2256 25.9759V30.8968" stroke="white" stroke-width="2" stroke-miterlimit="10"/>
</svg>
