<svg width="82" height="82" viewBox="0 0 82 82" fill="none" xmlns="http://www.w3.org/2000/svg">
<circle cx="41" cy="41" r="40" stroke="black" stroke-width="2"/>
<path d="M41.4342 10.9306C41.8394 10.6875 42.2075 10.4305 42.6056 10.2314C44.6661 9.20354 46.5737 10.6921 46.9418 12.4354C47.2566 13.9193 46.7543 15.1556 45.5875 16.0654C44.8814 16.6164 44.078 17.0539 43.2816 17.4776C42.2445 18.0286 41.168 18.5009 40.0313 18.8296C39.4641 18.994 39.0242 18.8666 38.6307 18.4384C37.2949 16.9845 36.1674 15.3848 35.3248 13.6068C34.6835 12.2548 34.7275 10.9028 35.6697 9.66887C36.6443 8.39327 38.4663 8.00434 39.7535 8.77294C40.3346 9.1202 40.7281 9.64109 41.0546 10.2152C41.1796 10.4328 41.2884 10.6551 41.4342 10.9306Z" stroke="black" stroke-width="2" stroke-miterlimit="10"/>
<path d="M59.8183 47.3652V63.0961C59.8183 64.374 58.7811 65.4111 57.5032 65.4111H21.8396C20.5617 65.4111 19.5245 64.374 19.5245 63.0961V38.5934C19.5245 37.3155 20.5617 36.2783 21.8396 36.2783H48.7291" stroke="black" stroke-width="2" stroke-miterlimit="10"/>
<path d="M39.6699 36.2783V65.4135" stroke="black" stroke-width="2" stroke-miterlimit="10"/>
<path d="M19.5245 50.8447H59.8183" stroke="black" stroke-width="2" stroke-miterlimit="10"/>
<path d="M66.617 54.1668L41.399 28.9488C40.4938 28.0436 40.4938 26.5781 41.399 25.6752L43.045 24.0292C43.9502 23.124 45.4156 23.124 46.3185 24.0292L71.5365 49.2473C72.4417 50.1525 72.4417 51.6179 71.5365 52.5208L69.8905 54.1668C68.9877 55.0697 67.5222 55.0697 66.617 54.1668Z" stroke="black" stroke-width="2" stroke-miterlimit="10"/>
<path d="M58.9293 36.6371L70.2824 37.658C73.0003 37.9034 74.1972 41.207 72.2687 43.1355L68.8494 46.5548" stroke="black" stroke-width="2" stroke-miterlimit="10"/>
<path d="M58.9287 36.6371L57.9078 25.284C57.6624 22.5661 54.3588 21.3692 52.4303 23.2977L49.011 26.717" stroke="black" stroke-width="2" stroke-miterlimit="10"/>
<path d="M25.4925 22.2049C25.6059 21.7465 25.6847 21.3044 25.8259 20.8807C26.5574 18.6976 28.9582 18.4013 30.4514 19.3713C31.7223 20.1978 32.2432 21.4271 32.0627 22.8948C31.9539 23.7838 31.6946 24.6612 31.4307 25.5224C31.088 26.6452 30.6597 27.7403 30.0879 28.7751C29.8032 29.2914 29.4003 29.5136 28.8216 29.4881C26.8514 29.4048 24.9207 29.0714 23.0663 28.4093C21.6587 27.9116 20.7304 26.9254 20.5267 25.3881C20.3137 23.7977 21.3277 22.2327 22.7816 21.8669C23.439 21.7026 24.0826 21.7928 24.7239 21.9665C24.96 22.0313 25.1939 22.1123 25.4925 22.2049Z" stroke="black" stroke-width="2" stroke-miterlimit="10"/>
</svg>
